<?xml version="1.0" standalone="no"?>
<!DOCTYPE svg PUBLIC "-//W3C//DTD SVG 20010904//EN"
 "http://www.w3.org/TR/2001/REC-SVG-20010904/DTD/svg10.dtd">
<svg version="1.0" xmlns="http://www.w3.org/2000/svg"
 width="1000.000000pt" height="925.000000pt" viewBox="0 0 1000.000000 925.000000"
 preserveAspectRatio="xMidYMid meet">

<g transform="translate(0.000000,925.000000) scale(0.100000,-0.100000)"
fill="#CD001A"  stroke="none">
<path d="M4860 9239 c-655 -56 -1214 -246 -1725 -584 -247 -164 -446 -337
-615 -533 -359 -417 -576 -925 -662 -1552 -20 -149 -17 -587 5 -730 39 -247
119 -495 222 -686 157 -291 425 -624 684 -847 271 -234 730 -548 1356 -927
644 -390 951 -621 1085 -815 43 -63 96 -179 115 -250 20 -77 20 -253 0 -329
-66 -253 -239 -424 -495 -486 -334 -83 -778 -36 -1095 115 -284 136 -568 404
-876 826 -225 307 -385 519 -477 629 -122 147 -290 314 -367 367 -187 126
-382 176 -595 153 -299 -33 -477 -161 -609 -440 -68 -144 -777 -2302 -799
-2433 -38 -225 42 -423 218 -542 186 -126 489 -158 775 -81 236 63 401 172
920 606 160 133 295 244 301 246 6 3 69 -37 140 -89 262 -191 442 -302 699
-432 465 -236 875 -347 1510 -407 216 -20 888 -17 1085 5 704 80 1296 285
1810 628 229 152 484 386 641 589 310 398 533 933 616 1477 24 160 24 560 0
708 -75 450 -239 785 -578 1180 -93 109 -297 309 -399 391 -190 154 -689 491
-1065 719 -535 324 -815 507 -1064 693 -391 293 -522 487 -522 772 0 196 53
323 195 466 75 75 106 99 176 133 132 64 191 76 365 75 367 -3 705 -137 1065
-424 146 -117 468 -441 645 -650 295 -347 547 -611 676 -708 73 -55 206 -116
299 -137 108 -25 301 -23 402 3 191 51 287 145 388 379 46 108 656 2107 677
2218 33 184 -17 364 -134 476 -131 127 -300 181 -563 182 -392 2 -618 -108
-1172 -565 -92 -76 -170 -138 -174 -138 -3 0 -61 31 -128 69 -736 417 -1423
627 -2221 681 -174 11 -597 11 -735 -1z"/>
</g>
</svg>
